# xmcd
#
# Track frame offsets: 
#        150
#        14478
#        37609
#        55213
#        69164
#        84401
#        96625
#        108684
#        121722
#        141466
#        150913
#        164866
#        176265
#        186801
#        197730
#        216609
#
# Disc length: 3068 seconds
#
# Revision: 2
# Processed by: cddbd v1.5.2PL0 Copyright (c) Steve Scherf et al.
# Submitted via: ExactAudioCopy v1.0b1
#
DISCID=df0bfa10
DTITLE=Chicken Shack - The Complete Blue Horizon Sessions [Disc 3]
DYEAR=2005
DGENRE=Blues
TTITLE0=Smartest Girl In Town (stereo)
TTITLE1=Hideaway (stereo)
TTITLE2=The Things You Put Me Through (stereo)
TTITLE3=Diary Of Your Life (stereo)
TTITLE4=Pocket (stereo)
TTITLE5=Never Ever (stereo)
TTITLE6=Sad Clown (stereo)
TTITLE7=Maudie (Lp version) (stereo)
TTITLE8=Telling Your Fortune (stereo)
TTITLE9=Tired Eyes (stereo)
TTITLE10=Some Other Time (stereo)
TTITLE11=Going Round (stereo)
TTITLE12=Andalucian Blues (stereo)
TTITLE13=You Know You Did You Did (stereo)
TTITLE14=She Didn't Use Her Loaf (stereo)
TTITLE15=Maudie (mono single version)
EXTD=
EXTT0=
EXTT1=
EXTT2=
EXTT3=
EXTT4=
EXTT5=
EXTT6=
EXTT7=
EXTT8=
EXTT9=
EXTT10=
EXTT11=
EXTT12=
EXTT13=
EXTT14=
EXTT15=
PLAYORDER=
